<?xml version="1.0" encoding="utf-8"?>
<!-- Generator: Adobe Illustrator 21.1.0, SVG Export Plug-In . SVG Version: 6.00 Build 0)  -->
<svg version="1.1" id="Layer_1" xmlns="http://www.w3.org/2000/svg" xmlns:xlink="http://www.w3.org/1999/xlink" x="0px" y="0px"
	 viewBox="0 0 355 105.6" style="enable-background:new 0 0 355 105.6;" xml:space="preserve">
<style type="text/css">
	.st0{fill-rule:evenodd;clip-rule:evenodd;fill:#027BE3;}
	.st1{fill-rule:evenodd;clip-rule:evenodd;fill:#26A69A;}
	.st2{fill-rule:evenodd;clip-rule:evenodd;fill:#DB2828;}
	.st3{fill-rule:evenodd;clip-rule:evenodd;fill:#555555;}
	.st4{fill:#027BE3;}
	.st5{fill:#555555;}
</style>
<g id="XMLID_125_">
	<g id="XMLID_2_">
		<g id="XMLID_27_">
			<g id="XMLID_114_">
				<g>
					<path id="XMLID_116_" class="st0" d="M45.5,86c-1.1-0.7-2.2-1.3-3.3-2c-0.2,0-0.4,0-0.6,0c-4.7,0-9.3,0-14,0
						c3.5,2.9,7.4,5.6,11.5,8.1c0.1-0.1,0.2-0.3,0.3-0.4l0.8-1c0.6-0.8,1.2-1.5,1.7-2.3c0.6-0.8,1.4-1.2,2.4-1.2c1.1,0,2.1,0,3.2,0
						C46.9,86.7,46.2,86.4,45.5,86z"/>
					<path id="XMLID_115_" class="st0" d="M126.4,68.8c-0.1,4.8-1.3,9.4-3.6,13.5c-8.6,15.3-30.5,20-54.2,13.5c-7.6,0-15.2,0-22.8,0
						c31.2,15.8,64.6,12.3,76.4-8.8C125.3,81.5,126.6,75.3,126.4,68.8z"/>
					<path id="XMLID_113_" class="st0" d="M14.5,57.1C5.4,42.9,2.9,27.8,9.4,16.2C14.9,6.3,25.9,0.9,39.5,0l0,0
						C23.9,0.7,10.7,6.7,4.2,18.2c-8.4,15.1-3.7,35.2,10.3,52.6C14.5,66.2,14.5,61.7,14.5,57.1z"/>
				</g>
			</g>
			<g id="XMLID_28_">
				<g id="XMLID_29_">
					<path id="XMLID_111_" class="st0" d="M111.3,25.3c-1.2-1.9-2.8-3.2-4.9-4c-0.3-0.1-0.4,0-0.4,0.3c0,1.1,0,2.2,0,3.2
						c0,0.4,0.1,0.7,0.5,0.9c1.3,0.9,2.1,2.2,2.3,3.8c0,0.1,0,0.2,0,0.2c0,12.1,0,24.3,0,36.4c0,2.6,0.2,5.3-0.2,7.9
						c-0.1,0.1-0.1,0.2-0.2,0.4c-0.3,0.8-0.8,1.5-1.4,2c-1.1,1-2.4,1.4-3.9,1.4c-25.6,0-51.2,0-76.8,0c-1.9,0-3.5-0.8-4.6-2.3
						c-0.6-0.8-1-1.7-1-2.7c0.1-1.7-0.2-3.3,0-5c0.1-1-0.1-2.1-0.1-3.1c0-0.9,0.1-1.9,0.1-2.8c0-10.5,0-20.9,0-31.4
						c0-2.1,0.8-3.7,2.5-4.9c0.2-0.2,0.3-0.3,0.3-0.6c0-1.1,0-2.2,0-3.3c0-0.5-0.1-0.6-0.6-0.4c-3.8,1.4-6.2,4.9-6.2,8.9
						c0,3.6,0,7.1,0,10.7c0,10.4,0,20.9,0,31.3c0,2.4,0.7,4.5,2.3,6.2c2,2.2,4.4,3.2,7.4,3.2c10,0,19.9,0,29.9,0
						c0.4,0,0.6,0.1,0.6,0.6c0,2.1,0,4.1,0,6.2c0,0.7,0,0.7-0.7,0.7c-3.9,0-7.8,0-11.7,0c-0.3,0-0.5,0.1-0.8,0.4
						c-0.8,1.1-1.7,2.2-2.6,3.3c-0.2,0.2-0.5,0.4-0.4,0.6c0.1,0.2,0.5,0.1,0.7,0.1c15.3,0,30.6,0,45.9,0c0.3,0,0.5,0,0.8,0
						c0.1,0,0.3,0.1,0.3-0.1c0.1-0.1-0.1-0.2-0.1-0.3c-0.9-1.2-1.9-2.4-2.8-3.7c-0.2-0.3-0.5-0.3-0.7-0.3c-3.9,0-7.8,0-11.7,0
						c-0.4,0-0.6-0.1-0.6-0.6c0-2.1,0-4.2,0-6.3c0-0.5,0.2-0.6,0.6-0.6c9.8,0,19.6,0,29.5,0c0.9,0,1.8,0,2.6-0.2
						c2.4-0.6,4.4-1.9,5.8-3.9c1.2-1.7,1.7-3.6,1.6-5.7c0-13.8,0-27.5,0-41.3C112.7,28.7,112.3,27,111.3,25.3z"/>
					<path id="XMLID_65_" class="st1" d="M103.5,65.7L103.5,65.7L103.5,65.7c0-0.4,0-0.9,0-1.3c0-0.2,0-0.3,0-0.5
						c0-16.2,0-32.4,0-48.7c0-0.2,0-0.4,0-0.7c0-0.3-0.1-0.4-0.4-0.4c-2-0.2-3.9-0.3-5.9-0.3c-0.9,0-1.7-0.1-2.6-0.1
						c-4.4-0.1-8.7-0.1-13.1,0.3c-2.8,0.2-5.6,0.7-8.2,1.7c-2.7,1-5.2,2.5-7.2,4.7c-0.3,0.3-0.6,0.7-0.8,1.1
						c0.1-0.1,0.2-0.1,0.3-0.2c0.7-0.6,1.4-1.1,2.2-1.5c3.4-1.9,7.2-2.6,11-2.9c2.6-0.2,5.2-0.1,7.8,0c3.2,0.1,6.4,0.3,9.7,0.6
						c0.3,0,0.6,0.1,0.9,0.1c0.7,0.1,1.4,0.1,2.1,0.3c0,12.2,0,24.3,0,36.5c0,4.6,0,9.1,0,13.7c0,0.4-0.1,0.6-0.6,0.5
						c-1.3,0-2.7,0-4,0c-0.7,0-1.4,0-2.2,0c-0.5,0-1.1,0-1.6,0c-0.5,0-1,0-1.5,0c-1.7,0-3.4-0.1-5,0c-0.2,0-0.5,0-0.7,0
						c-0.5,0-1,0-1.5,0c-0.1,0-0.3,0-0.4,0c-5.2,0-10.3,0-15.5,0c-0.5,0-0.6-0.1-0.6-0.6c0-11,0-22.1,0-33.1c0-1.7-0.1-3.5,0-5.2
						c0.1-1.4-0.2-2.8,0-4.2c0-0.4,0.2-1-0.1-1.3c-0.3-0.3-0.9,0-1.3-0.1c-0.4,0-0.5,0.1-0.4,0.5c0,2.1,0,4.2,0,6.3c0,1,0,2,0,2.9
						c-0.1,0.5,0,1,0,1.5c0,0.3,0,0.6,0,0.9c0,10.7,0,21.3,0,32c0,0.4-0.1,0.5-0.5,0.5c-4.5,0-8.9,0-13.4,0c-1.2,0-2.4,0-3.7,0
						c-0.7,0-1.3,0-2,0c-0.3,0-0.6,0-0.8,0c-0.5,0-1,0-1.5,0c-0.3,0-0.6,0-0.9,0c-1.6,0-3.2,0-4.8,0c-0.3,0-0.6,0-0.9,0
						c-1.7,0-3.5,0-5.2,0h0c0-0.9,0-1.7,0-2.6c0-0.2,0-0.3,0-0.5c0-15.7,0-31.5,0-47.2c0-0.4,0.1-0.5,0.5-0.5
						c0.8-0.1,1.6-0.2,2.4-0.2c0.1,0,0.3,0,0.3-0.1c3-0.3,5.9-0.4,8.9-0.5c2.6-0.1,5.2-0.2,7.8,0c3.9,0.3,7.6,1,11,2.9
						c0.8,0.4,1.5,0.9,2.2,1.5c0.1,0.1,0.2,0.2,0.3,0.2c-0.2-0.4-0.5-0.8-0.8-1.1c-2-2.2-4.5-3.6-7.2-4.7c-2.7-1-5.4-1.5-8.2-1.7
						c-4.4-0.3-8.7-0.4-13.1-0.3c-0.9,0-1.7,0-2.6,0.1v0.1c-1.7,0.1-3.4,0.2-5.1,0.3c-0.5,0-0.6,0.2-0.6,0.7c0,16.3,0,32.6,0,48.9
						c0,0.3,0,0.5,0,0.8c0,0.4,0,0.8,0,1.2c0,2.2-0.1,4.4-0.1,6.6c0,0.3,0.1,0.3,0.3,0.3c0.6,0,1.3,0,1.9,0c0.1,0,0.3,0,0.4,0
						c2,0,4,0,6.1,0c0.9,0.1,1.8,0,2.8,0c0.2,0,0.3,0,0.5,0c0.6,0.1,1.3,0,1.9,0c0.2,0,0.4,0,0.6,0c0.6,0.1,1.3,0,1.9,0
						c0.2,0,0.3,0,0.5,0c0.6,0.1,1.2,0,1.8,0c0.7,0,1.3,0,2,0c11.7,0,23.5,0,35.2,0c0.3,0,0.6,0,0.9,0c0.6,0,1.3,0.1,1.9,0
						c1.1,0,2.1,0,3.2,0c0.1,0,0.3,0,0.4,0c0.9,0,1.7,0,2.6,0c0.6,0,1.2,0,1.8,0c0.2,0,0.3,0,0.5,0c0.1,0,0.3,0,0.4,0c2,0,4,0,6.1,0
						c0.9,0.1,1.8,0,2.8,0c0.4,0,0.8,0,1.2,0c0.1,0,0.3,0,0.3-0.2c0-0.8,0-1.6,0-2.3C103.5,68.8,103.5,67,103.5,65.7
						C103.5,65.6,103.5,65.7,103.5,65.7z M78.2,15.4C78.2,15.3,78.2,15.3,78.2,15.4c0-0.1,0-0.1,0-0.1
						C78.3,15.3,78.3,15.3,78.2,15.4z M97.1,16.7C97.1,16.7,97.1,16.7,97.1,16.7C97.1,16.7,97.1,16.7,97.1,16.7
						C97.1,16.7,97.1,16.7,97.1,16.7z M50.5,15.2C50.5,15.3,50.4,15.3,50.5,15.2C50.4,15.3,50.4,15.3,50.5,15.2
						C50.4,15.2,50.4,15.2,50.5,15.2z M99.4,17.8C99.4,17.8,99.4,17.8,99.4,17.8C99.4,17.8,99.4,17.8,99.4,17.8
						C99.4,17.8,99.4,17.8,99.4,17.8z M99.4,17.8C99.4,17.8,99.4,17.8,99.4,17.8C99.4,17.8,99.4,17.8,99.4,17.8
						C99.4,17.8,99.4,17.8,99.4,17.8z"/>
					<path id="XMLID_61_" class="st2" d="M88,55.9c-0.9-0.8-1.7-1.7-2.6-2.5c-0.6-0.6-1.2-1.2-1.9-1.9c-0.6,1.3-1.2,2.6-1.9,4
						c-1.6-4-3.2-7.9-4.8-11.9c4,1.6,7.9,3.1,11.9,4.7c-1.4,0.7-2.7,1.4-4,2.1c1.5,1.5,3,2.9,4.5,4.3C88.9,55,88.5,55.4,88,55.9
						C88,55.9,88,55.9,88,55.9z"/>
					<g id="XMLID_30_">
						<path id="XMLID_58_" class="st3" d="M39.5,32.1c0-0.4,0-0.9,0-1.3c6.7,0,13.4,0,20.1,0c0,0.4,0,0.9,0,1.3
							C52.9,32.1,46.2,32.1,39.5,32.1z"/>
						<path id="XMLID_55_" class="st3" d="M59.6,41.9c0,0.4,0,0.8,0,1.3c-6.7,0-13.4,0-20.1,0c0-0.4,0-0.8,0-1.3
							C46.2,41.9,52.9,41.9,59.6,41.9z"/>
						<path id="XMLID_52_" class="st3" d="M39.5,54.8c0-0.5,0-0.8,0-1.3c6.7,0,13.4,0,20.1,0c0,0.4,0,0.8,0,1.3
							C52.9,54.8,46.2,54.8,39.5,54.8z"/>
					</g>
				</g>
			</g>
		</g>
		<g id="XMLID_3_">
			<path id="XMLID_25_" class="st4" d="M130.6,72l6.9-9.8c4.1,4.3,10.6,8,18.7,8c7,0,10.2-3.1,10.2-6.5c0-10.2-33.9-3.1-33.9-25.2
				c0-9.8,8.5-17.9,22.3-17.9c9.4,0,17.1,2.8,22.9,8.2l-7,9.4c-4.8-4.4-11.1-6.4-17.1-6.4c-5.3,0-8.3,2.3-8.3,5.8
				c0,9.3,33.8,3,33.8,25c0,10.8-7.8,18.9-23.6,18.9C144.3,81.4,136.2,77.6,130.6,72z"/>
			<path id="XMLID_22_" class="st4" d="M181.6,59c0-12.1,8.5-22.3,22.5-22.3c14.1,0,22.6,10.2,22.6,22.3s-8.5,22.4-22.6,22.4
				C190,81.4,181.6,71,181.6,59z M215,59c0-6.6-3.9-12.4-10.9-12.4c-7,0-10.9,5.7-10.9,12.4c0,6.7,3.9,12.4,10.9,12.4
				C211.1,71.4,215,65.7,215,59z"/>
			<path id="XMLID_20_" class="st4" d="M232,80.3V21.5h11.2v58.9H232z"/>
			<path id="XMLID_18_" class="st4" d="M262.2,80.3l-17.1-42.6h12l11.1,29.6l11.2-29.6h12l-17.1,42.6H262.2z"/>
			<path id="XMLID_7_" class="st5" d="M292.3,26.4c0-3.7,3-6.6,6.6-6.6c3.7,0,6.7,2.9,6.7,6.6s-3,6.7-6.7,6.7
				C295.3,33.1,292.3,30.1,292.3,26.4z M293.4,80.3V37.7h11.2v42.6H293.4z"/>
			<path id="XMLID_4_" class="st5" d="M309.9,59c0-12.1,8.5-22.3,22.5-22.3c14.1,0,22.6,10.2,22.6,22.3s-8.5,22.4-22.6,22.4
				C318.3,81.4,309.9,71,309.9,59z M343.3,59c0-6.6-3.9-12.4-10.9-12.4c-7,0-10.9,5.7-10.9,12.4c0,6.7,3.9,12.4,10.9,12.4
				C339.4,71.4,343.3,65.7,343.3,59z"/>
		</g>
	</g>
	<g id="XMLID_1_">
		<path id="XMLID_160_" class="st5" d="M34.6,34c-1.4,0-2.5-1.1-2.5-2.5s1.1-2.5,2.5-2.5s2.5,1.1,2.5,2.5S35.9,34,34.6,34z
			 M34.6,29.9c-0.9,0-1.6,0.7-1.6,1.6s0.7,1.6,1.6,1.6c0.9,0,1.6-0.7,1.6-1.6S35.4,29.9,34.6,29.9z"/>
	</g>
	<g id="XMLID_124_">
		<path id="XMLID_157_" class="st5" d="M34.4,44.8c-1.3,0-2.3-1-2.3-2.3c0-1.3,1-2.3,2.3-2.3c1.3,0,2.3,1,2.3,2.3
			C36.7,43.8,35.7,44.8,34.4,44.8z M34.4,41c-0.8,0-1.5,0.7-1.5,1.5c0,0.8,0.7,1.5,1.5,1.5c0.8,0,1.5-0.7,1.5-1.5
			C35.9,41.7,35.2,41,34.4,41z"/>
	</g>
	<g id="XMLID_123_">
		<circle class="st5" cx="34.6" cy="31.5" r="0.8"/>
	</g>
</g>
<g id="XMLID_31_">
	<path id="XMLID_33_" class="st5" d="M34.4,56.5c-1.3,0-2.3-1-2.3-2.3c0-1.3,1-2.3,2.3-2.3c1.3,0,2.3,1,2.3,2.3
		C36.7,55.5,35.7,56.5,34.4,56.5z M34.4,52.7c-0.8,0-1.5,0.7-1.5,1.5c0,0.8,0.7,1.5,1.5,1.5c0.8,0,1.5-0.7,1.5-1.5
		C35.9,53.4,35.2,52.7,34.4,52.7z"/>
</g>
</svg>
